<svg width="102" height="17" viewBox="0 0 102 17" fill="none" xmlns="http://www.w3.org/2000/svg">
<path d="M0.491223 16V0.661701H5.14597C5.3093 0.661701 5.58624 0.665252 5.9768 0.672353C6.37446 0.679454 6.75436 0.707858 7.11652 0.757565C8.28109 0.920889 9.25394 1.35405 10.0351 2.05706C10.8162 2.76007 11.402 3.6548 11.7926 4.74126C12.1831 5.82773 12.3784 7.02425 12.3784 8.33085C12.3784 9.63745 12.1831 10.834 11.7926 11.9204C11.402 13.0069 10.8162 13.9016 10.0351 14.6046C9.25394 15.3076 8.28109 15.7408 7.11652 15.9041C6.76146 15.9467 6.38156 15.9751 5.9768 15.9893C5.57204 15.9964 5.29509 16 5.14597 16H0.491223ZM2.11027 14.4981H5.14597C5.43711 14.4981 5.74956 14.491 6.08331 14.4768C6.42416 14.4555 6.71531 14.42 6.95674 14.3703C7.85148 14.2141 8.57223 13.8519 9.11902 13.2838C9.6729 12.7158 10.0777 12.0057 10.3333 11.1535C10.5889 10.2943 10.7168 9.3534 10.7168 8.33085C10.7168 7.3012 10.5889 6.35675 10.3333 5.49753C10.0777 4.6383 9.6729 3.92819 9.11902 3.36721C8.56513 2.80622 7.84438 2.44762 6.95674 2.2914C6.71531 2.24169 6.42061 2.20973 6.07266 2.19553C5.73181 2.17423 5.42291 2.16358 5.14597 2.16358H2.11027V14.4981ZM19.6721 16.3195C18.5501 16.3195 17.5773 16.071 16.7535 15.5739C15.9369 15.0769 15.3014 14.3774 14.8469 13.4756C14.3924 12.5737 14.1652 11.5157 14.1652 10.3014C14.1652 9.04451 14.3889 7.95804 14.8363 7.04201C15.2836 6.12597 15.9121 5.41941 16.7216 4.92234C17.5382 4.42527 18.5004 4.17673 19.6082 4.17673C20.7443 4.17673 21.7136 4.43947 22.5161 4.96495C23.3185 5.48332 23.9256 6.22894 24.3375 7.20178C24.7493 8.17463 24.9375 9.33565 24.902 10.6849H23.3043V10.131C23.2759 8.63975 22.9528 7.51423 22.335 6.75441C21.7243 5.9946 20.8296 5.61469 19.6508 5.61469C18.4152 5.61469 17.4672 6.0159 16.8068 6.81832C16.1535 7.62074 15.8269 8.76402 15.8269 10.2481C15.8269 11.6968 16.1535 12.8223 16.8068 13.6247C17.4672 14.42 18.401 14.8177 19.6082 14.8177C20.4319 14.8177 21.1491 14.6295 21.7598 14.2531C22.3776 13.8697 22.864 13.3193 23.2191 12.6021L24.6783 13.1667C24.2239 14.1679 23.5528 14.9455 22.6652 15.4994C21.7847 16.0462 20.787 16.3195 19.6721 16.3195ZM15.273 10.6849V9.37471H24.0605V10.6849H15.273ZM35.262 16V10.131C35.262 9.49187 35.2017 8.90604 35.081 8.37346C34.9602 7.83378 34.765 7.36511 34.4951 6.96745C34.2324 6.56269 33.888 6.25024 33.4619 6.03011C33.0429 5.80997 32.5317 5.69991 31.9281 5.69991C31.3742 5.69991 30.8842 5.79577 30.4582 5.9875C30.0392 6.17923 29.6841 6.45617 29.393 6.81832C29.109 7.17338 28.8924 7.60654 28.7433 8.11782C28.5941 8.6291 28.5196 9.21138 28.5196 9.86468L27.4118 9.61969C27.4118 8.44092 27.6177 7.45032 28.0296 6.6479C28.4415 5.84548 29.0095 5.23834 29.7338 4.82648C30.4582 4.41461 31.289 4.20868 32.2263 4.20868C32.9151 4.20868 33.5152 4.3152 34.0264 4.52823C34.5448 4.74126 34.9815 5.02886 35.3366 5.39101C35.6987 5.75316 35.9899 6.16858 36.21 6.63725C36.4302 7.09882 36.5899 7.59234 36.6893 8.11782C36.7888 8.6362 36.8385 9.15457 36.8385 9.67295V16H35.262ZM26.9431 16V4.49628H28.3598V7.3296H28.5196V16H26.9431ZM45.8657 16C45.2195 16.1349 44.5804 16.1882 43.9484 16.1598C43.3235 16.1314 42.7625 15.9964 42.2655 15.755C41.7755 15.5136 41.4027 15.1372 41.147 14.6259C40.9411 14.1999 40.8275 13.7703 40.8062 13.3371C40.792 12.8968 40.7849 12.3962 40.7849 11.8352V1.3008H42.34V11.7713C42.34 12.2542 42.3436 12.6589 42.3507 12.9856C42.3649 13.3051 42.4394 13.5892 42.5743 13.8377C42.83 14.3135 43.2347 14.5975 43.7886 14.6899C44.3496 14.7822 45.042 14.7609 45.8657 14.6259V16ZM38.3244 5.83838V4.49628H45.8657V5.83838H38.3244ZM48.3452 2.3127V0.555185H49.911V2.3127H48.3452ZM48.3452 16V4.49628H49.911V16H48.3452ZM57.3969 16.3089C56.0477 16.3089 54.9364 16.0178 54.0629 15.4355C53.1966 14.8532 52.664 14.0437 52.4652 13.0069L54.0629 12.7406C54.2334 13.3939 54.6204 13.9158 55.224 14.3064C55.8346 14.6899 56.5874 14.8816 57.4821 14.8816C58.3555 14.8816 59.0443 14.7005 59.5485 14.3384C60.0527 13.9691 60.3048 13.4685 60.3048 12.8365C60.3048 12.4814 60.2231 12.1938 60.0598 11.9737C59.9036 11.7465 59.5805 11.537 59.0905 11.3453C58.6005 11.1535 57.8691 10.9263 56.8963 10.6635C55.8524 10.3795 55.0358 10.0955 54.4464 9.81142C53.857 9.52738 53.438 9.20073 53.1895 8.83148C52.941 8.45512 52.8167 7.9971 52.8167 7.45742C52.8167 6.80412 53.0013 6.23249 53.3706 5.74251C53.7398 5.24544 54.2511 4.86198 54.9044 4.59214C55.5577 4.3152 56.3175 4.17673 57.1838 4.17673C58.0502 4.17673 58.8242 4.31875 59.5059 4.60279C60.1947 4.87973 60.7486 5.27029 61.1675 5.77447C61.5865 6.27864 61.835 6.86448 61.9132 7.53198L60.3154 7.81957C60.2089 7.14497 59.8716 6.61239 59.3035 6.22183C58.7425 5.82417 58.0289 5.61824 57.1625 5.60404C56.3459 5.58274 55.682 5.73896 55.1707 6.07271C54.6594 6.39936 54.4038 6.83608 54.4038 7.38286C54.4038 7.6882 54.4961 7.95094 54.6807 8.17108C54.8653 8.38411 55.1991 8.58649 55.682 8.77822C56.1719 8.96995 56.8678 9.17943 57.7697 9.40666C58.8277 9.6765 59.6586 9.96054 60.2622 10.2588C60.8657 10.557 61.2954 10.9085 61.551 11.3133C61.8066 11.7181 61.9345 12.2187 61.9345 12.8152C61.9345 13.9016 61.5297 14.7573 60.7202 15.3822C59.9178 16 58.81 16.3089 57.3969 16.3089ZM70.5599 16C69.9137 16.1349 69.2746 16.1882 68.6426 16.1598C68.0177 16.1314 67.4568 15.9964 66.9597 15.755C66.4697 15.5136 66.0969 15.1372 65.8413 14.6259C65.6353 14.1999 65.5217 13.7703 65.5004 13.3371C65.4862 12.8968 65.4791 12.3962 65.4791 11.8352V1.3008H67.0342V11.7713C67.0342 12.2542 67.0378 12.6589 67.0449 12.9856C67.0591 13.3051 67.1337 13.5892 67.2686 13.8377C67.5242 14.3135 67.929 14.5975 68.4829 14.6899C69.0438 14.7822 69.7362 14.7609 70.5599 14.6259V16ZM63.0186 5.83838V4.49628H70.5599V5.83838H63.0186Z" fill="#3F3F3F"/>
<path d="M71.7612 16L77.0444 0.661701H79.1215L84.4047 16H82.775L77.7581 1.53513H78.3759L73.3909 16H71.7612ZM74.1152 12.2826V10.8127H82.04V12.2826H74.1152ZM100.047 16L100.058 8.44802C100.058 7.56038 99.8095 6.86448 99.3124 6.36031C98.8224 5.84903 98.1975 5.59339 97.4377 5.59339C97.0046 5.59339 96.582 5.6928 96.1702 5.89163C95.7583 6.09046 95.4175 6.41001 95.1476 6.85028C94.8849 7.29054 94.7535 7.86573 94.7535 8.57584L93.8268 8.30955C93.8055 7.48582 93.9653 6.76507 94.3062 6.14727C94.6541 5.52948 95.1299 5.05016 95.7335 4.70931C96.3442 4.36136 97.033 4.18738 97.7999 4.18738C98.9574 4.18738 99.884 4.54598 100.58 5.26319C101.276 5.9733 101.624 6.93549 101.624 8.14977L101.613 16H100.047ZM86.3175 16V4.49628H87.7235V7.3296H87.8939V16H86.3175ZM93.1984 16L93.209 8.55453C93.209 7.6385 92.9641 6.91774 92.4741 6.39226C91.9912 5.85968 91.3521 5.59339 90.5568 5.59339C89.7615 5.59339 89.1188 5.86678 88.6289 6.41356C88.1389 6.95324 87.8939 7.674 87.8939 8.57584L86.9566 8.06456C86.9566 7.32605 87.1305 6.66565 87.4785 6.08336C87.8264 5.49398 88.3022 5.03241 88.9058 4.69866C89.5094 4.3578 90.1946 4.18738 90.9616 4.18738C91.693 4.18738 92.3427 4.3436 92.9108 4.65605C93.486 4.9685 93.9369 5.42296 94.2635 6.01945C94.5902 6.61594 94.7535 7.34025 94.7535 8.19238L94.7429 16H93.1984Z" fill="#E21F4D"/>
</svg>
