<svg width="60" height="16" viewBox="0 0 60 16" fill="none" xmlns="http://www.w3.org/2000/svg">
<path d="M7.5 0.5L9.17519 5.6943L14.6329 5.68237L10.2105 8.8807L11.9084 14.0676L7.5 10.85L3.09161 14.0676L4.78949 8.8807L0.367076 5.68237L5.82481 5.6943L7.5 0.5Z" fill="#DFB646"/>
<path d="M30.5 0.5L32.1752 5.6943L37.6329 5.68237L33.2105 8.8807L34.9084 14.0676L30.5 10.85L26.0916 14.0676L27.7895 8.8807L23.3671 5.68237L28.8248 5.6943L30.5 0.5Z" fill="#DFB646"/>
<path d="M52.5 0.5L54.1752 5.6943L59.6329 5.68237L55.2105 8.8807L56.9084 14.0676L52.5 10.85L48.0916 14.0676L49.7895 8.8807L45.3671 5.68237L50.8248 5.6943L52.5 0.5Z" fill="#DFB646"/>
</svg>
